<svg width="20" height="15" viewBox="0 0 20 15" xmlns="http://www.w3.org/2000/svg">
  <rect width="20" height="15" fill="#b22234"/>
  <rect width="20" height="1.15" y="1.15" fill="white"/>
  <rect width="20" height="1.15" y="3.46" fill="white"/>
  <rect width="20" height="1.15" y="5.77" fill="white"/>
  <rect width="20" height="1.15" y="8.08" fill="white"/>
  <rect width="20" height="1.15" y="10.38" fill="white"/>
  <rect width="20" height="1.15" y="12.69" fill="white"/>
  <rect width="8" height="5.38" fill="#3c3b6e"/>
  <g fill="white">
    <g transform="scale(0.4)">
      <polygon points="1,1 2,3 4,3 2.5,4.5 3,6 1,5 -1,6 -0.5,4.5 -2,3 0,3"/>
      <polygon points="6,1 7,3 9,3 7.5,4.5 8,6 6,5 4,6 4.5,4.5 3,3 5,3"/>
      <polygon points="11,1 12,3 14,3 12.5,4.5 13,6 11,5 9,6 9.5,4.5 8,3 10,3"/>
      <polygon points="16,1 17,3 19,3 17.5,4.5 18,6 16,5 14,6 14.5,4.5 13,3 15,3"/>
      <polygon points="3.5,4 4.5,6 6.5,6 5,7.5 5.5,9 3.5,8 1.5,9 2,7.5 0.5,6 2.5,6"/>
      <polygon points="8.5,4 9.5,6 11.5,6 10,7.5 10.5,9 8.5,8 6.5,9 7,7.5 5.5,6 7.5,6"/>
      <polygon points="13.5,4 14.5,6 16.5,6 15,7.5 15.5,9 13.5,8 11.5,9 12,7.5 10.5,6 12.5,6"/>
      <polygon points="1,7 2,9 4,9 2.5,10.5 3,12 1,11 -1,12 -0.5,10.5 -2,9 0,9"/>
      <polygon points="6,7 7,9 9,9 7.5,10.5 8,12 6,11 4,12 4.5,10.5 3,9 5,9"/>
      <polygon points="11,7 12,9 14,9 12.5,10.5 13,12 11,11 9,12 9.5,10.5 8,9 10,9"/>
      <polygon points="16,7 17,9 19,9 17.5,10.5 18,12 16,11 14,12 14.5,10.5 13,9 15,9"/>
    </g>
  </g>
</svg>
